<svg width="29" height="29" viewBox="0 0 29 29" fill="none" xmlns="http://www.w3.org/2000/svg">
    <g clip-path="url(#clip0_33_658)">
        <path d="M14.2974 28.499C22.0293 28.499 28.2974 22.231 28.2974 14.499C28.2974 6.76704 22.0293 0.499023 14.2974 0.499023C6.56538 0.499023 0.297363 6.76704 0.297363 14.499C0.297363 22.231 6.56538 28.499 14.2974 28.499Z" fill="#007AB9"/>
        <path d="M22.6624 15.6259V21.3978H19.316V16.0128C19.316 14.6606 18.8329 13.7372 17.6212 13.7372C16.6966 13.7372 16.1473 14.3589 15.9047 14.9609C15.8166 15.176 15.7939 15.4747 15.7939 15.7764V21.3976H12.4473C12.4473 21.3976 12.4922 12.2771 12.4473 11.333H15.7942V12.7592C15.7874 12.7704 15.778 12.7814 15.772 12.7922H15.7942V12.7592C16.2389 12.0749 17.032 11.0966 18.8102 11.0966C21.0118 11.0966 22.6624 12.5351 22.6624 15.6259ZM8.94642 6.48145C7.80167 6.48145 7.05273 7.23288 7.05273 8.22015C7.05273 9.18646 7.77996 9.95961 8.9025 9.95961H8.92421C10.0914 9.95961 10.8171 9.18646 10.8171 8.22015C10.7949 7.23288 10.0914 6.48145 8.94642 6.48145ZM7.25164 21.3978H10.597V11.333H7.25164V21.3978Z" fill="#F1F2F2"/>
    </g>
    <defs>
        <clipPath id="clip0_33_658">
            <rect width="28" height="28" fill="white" transform="translate(0.297363 0.5)"/>
        </clipPath>
    </defs>
</svg>
