<svg width="110" height="18" viewBox="0 0 110 18" fill="none" xmlns="http://www.w3.org/2000/svg">
    <g clip-path="url(#clip0_33_446)">
        <path d="M19.5798 6.97922C19.5798 6.70983 19.3678 6.5384 18.9437 6.46493L13.1444 5.62003L10.5628 0.477177C10.4131 0.1833 10.2261 0.0363598 10.0016 0.0363598C9.77708 0.0363598 9.59001 0.1833 9.44035 0.477177L6.85871 5.62003L1.05939 6.46493C0.635358 6.5384 0.42334 6.70983 0.42334 6.97922C0.42334 7.15065 0.523113 7.33432 0.72266 7.53024L4.91314 11.5343L3.90293 17.1915C3.90293 17.2894 3.90293 17.3629 3.90293 17.4119C3.90293 17.5588 3.94035 17.6874 4.01518 17.7976C4.09001 17.9078 4.21472 17.9629 4.38933 17.9629C4.51404 17.9629 4.6637 17.9139 4.83831 17.816L10.0016 15.1711L15.1648 17.816C15.3394 17.9139 15.4891 17.9629 15.6138 17.9629C15.7884 17.9629 15.9131 17.9078 15.988 17.7976C16.0628 17.6874 16.1002 17.5588 16.1002 17.4119C16.1002 17.3139 16.1002 17.2404 16.1002 17.1915L15.09 11.5343L19.2805 7.53024C19.48 7.33432 19.5798 7.15065 19.5798 6.97922Z" fill="#FFC453"/>
    </g>
    <g clip-path="url(#clip1_33_446)">
        <path d="M41.6005 6.97922C41.6005 6.70983 41.3991 6.5384 40.9962 6.46493L35.4869 5.62003L33.0343 0.477177C32.8922 0.1833 32.7144 0.0363598 32.5012 0.0363598C32.2879 0.0363598 32.1102 0.1833 31.968 0.477177L29.5155 5.62003L24.0061 6.46493C23.6033 6.5384 23.4019 6.70983 23.4019 6.97922C23.4019 7.15065 23.4966 7.33432 23.6862 7.53024L27.6672 11.5343L26.7075 17.1915C26.7075 17.2894 26.7075 17.3629 26.7075 17.4119C26.7075 17.5588 26.743 17.6874 26.8141 17.7976C26.8852 17.9078 27.0037 17.9629 27.1695 17.9629C27.288 17.9629 27.4302 17.9139 27.5961 17.816L32.5012 15.1711L37.4063 17.816C37.5722 17.9139 37.7143 17.9629 37.8328 17.9629C37.9987 17.9629 38.1172 17.9078 38.1882 17.7976C38.2593 17.6874 38.2949 17.5588 38.2949 17.4119C38.2949 17.3139 38.2949 17.2404 38.2949 17.1915L37.3352 11.5343L41.3161 7.53024C41.5057 7.33432 41.6005 7.15065 41.6005 6.97922Z" fill="#FFC453"/>
    </g>
    <g clip-path="url(#clip2_33_446)">
        <path d="M64.5798 6.97922C64.5798 6.70983 64.3678 6.5384 63.9437 6.46493L58.1444 5.62003L55.5628 0.477177C55.4131 0.1833 55.2261 0.0363598 55.0016 0.0363598C54.7771 0.0363598 54.59 0.1833 54.4403 0.477177L51.8587 5.62003L46.0594 6.46493C45.6354 6.5384 45.4233 6.70983 45.4233 6.97922C45.4233 7.15065 45.5231 7.33432 45.7227 7.53024L49.9131 11.5343L48.9029 17.1915C48.9029 17.2894 48.9029 17.3629 48.9029 17.4119C48.9029 17.5588 48.9403 17.6874 49.0152 17.7976C49.09 17.9078 49.2147 17.9629 49.3893 17.9629C49.514 17.9629 49.6637 17.9139 49.8383 17.816L55.0016 15.1711L60.1648 17.816C60.3394 17.9139 60.4891 17.9629 60.6138 17.9629C60.7884 17.9629 60.9131 17.9078 60.988 17.7976C61.0628 17.6874 61.1002 17.5588 61.1002 17.4119C61.1002 17.3139 61.1002 17.2404 61.1002 17.1915L60.09 11.5343L64.2805 7.53024C64.48 7.33432 64.5798 7.15065 64.5798 6.97922Z" fill="#FFC453"/>
    </g>
    <g clip-path="url(#clip3_33_446)">
        <path d="M86.6005 6.97922C86.6005 6.70983 86.3991 6.5384 85.9962 6.46493L80.4869 5.62003L78.0343 0.477177C77.8922 0.1833 77.7144 0.0363598 77.5012 0.0363598C77.2879 0.0363598 77.1102 0.1833 76.968 0.477177L74.5155 5.62003L69.0061 6.46493C68.6033 6.5384 68.4019 6.70983 68.4019 6.97922C68.4019 7.15065 68.4966 7.33432 68.6862 7.53024L72.6672 11.5343L71.7075 17.1915C71.7075 17.2894 71.7075 17.3629 71.7075 17.4119C71.7075 17.5588 71.743 17.6874 71.8141 17.7976C71.8852 17.9078 72.0037 17.9629 72.1695 17.9629C72.288 17.9629 72.4302 17.9139 72.5961 17.816L77.5012 15.1711L82.4063 17.816C82.5722 17.9139 82.7143 17.9629 82.8328 17.9629C82.9987 17.9629 83.1172 17.9078 83.1882 17.7976C83.2593 17.6874 83.2949 17.5588 83.2949 17.4119C83.2949 17.3139 83.2949 17.2404 83.2949 17.1915L82.3352 11.5343L86.3161 7.53024C86.5057 7.33432 86.6005 7.15065 86.6005 6.97922Z" fill="#FFC453"/>
    </g>
    <g clip-path="url(#clip4_33_446)">
        <path d="M109.58 6.97922C109.58 6.70983 109.368 6.5384 108.944 6.46493L103.144 5.62003L100.563 0.477177C100.413 0.1833 100.226 0.0363598 100.002 0.0363598C99.7771 0.0363598 99.59 0.1833 99.4403 0.477177L96.8587 5.62003L91.0594 6.46493C90.6354 6.5384 90.4233 6.70983 90.4233 6.97922C90.4233 7.15065 90.5231 7.33432 90.7227 7.53024L94.9131 11.5343L93.9029 17.1915C93.9029 17.2894 93.9029 17.3629 93.9029 17.4119C93.9029 17.5588 93.9403 17.6874 94.0152 17.7976C94.09 17.9078 94.2147 17.9629 94.3893 17.9629C94.514 17.9629 94.6637 17.9139 94.8383 17.816L100.002 15.1711L105.165 17.816C105.339 17.9139 105.489 17.9629 105.614 17.9629C105.788 17.9629 105.913 17.9078 105.988 17.7976C106.063 17.6874 106.1 17.5588 106.1 17.4119C106.1 17.3139 106.1 17.2404 106.1 17.1915L105.09 11.5343L109.28 7.53024C109.48 7.33432 109.58 7.15065 109.58 6.97922Z" fill="#FFC453"/>
    </g>
    <defs>
        <clipPath id="clip0_33_446">
            <rect width="20" height="18" fill="white" transform="matrix(1 0 0 -1 0 18)"/>
        </clipPath>
        <clipPath id="clip1_33_446">
            <rect width="19" height="18" fill="white" transform="matrix(1 0 0 -1 23 18)"/>
        </clipPath>
        <clipPath id="clip2_33_446">
            <rect width="20" height="18" fill="white" transform="matrix(1 0 0 -1 45 18)"/>
        </clipPath>
        <clipPath id="clip3_33_446">
            <rect width="19" height="18" fill="white" transform="matrix(1 0 0 -1 68 18)"/>
        </clipPath>
        <clipPath id="clip4_33_446">
            <rect width="20" height="18" fill="white" transform="matrix(1 0 0 -1 90 18)"/>
        </clipPath>
    </defs>
</svg>
